<?xml version="1.0" standalone="no"?><!DOCTYPE svg PUBLIC "-//W3C//DTD SVG 1.1//EN" "http://www.w3.org/Graphics/SVG/1.1/DTD/svg11.dtd"><svg t="1609194489479" class="icon" viewBox="0 0 1222 1024" version="1.1" xmlns="http://www.w3.org/2000/svg" p-id="4915" xmlns:xlink="http://www.w3.org/1999/xlink" width="238.671875" height="200"><defs><style type="text/css"></style></defs><path d="M399.758369 81.589677l15.624258 15.987613 40.431484 43.140129c2.279226 2.34529 4.294194 4.459355 6.276129 6.441291l6.210065 6.144c1.882839 1.816774 3.567484 3.36929 5.086967 4.69058l2.114065 1.783742c1.057032 0.858839 1.783742 1.32129 0.396387 1.486452l5.483355-0.561549c6.672516-0.891871 18.266839-2.873806 39.969032-6.606451 18.299871-3.038968 33.659871-5.12 48.557419-6.408258 10.008774-0.858839 19.422968-1.32129 28.308645-1.321291 8.951742 0 18.498065 0.462452 28.638968 1.354323 11.792516 1.024 23.816258 2.543484 37.59071 4.657548l10.669419 1.684646c5.582452 0.924903 26.194581 4.426323 30.653936 5.12l11.098838 1.651613 6.57342 0.495483c-2.675613 0-2.873806-0.198194-2.213161-0.858838l0.627612-0.594581a129.156129 129.156129 0 0 0 9.579355-10.107871l3.038968-3.501419c2.77471-3.303226 5.813677-7.002839 9.315097-11.330065l34.023226-43.371355 10.83458-13.477161c29.200516-35.740903 45.716645-50.539355 62.992516-50.539355 42.182194 0 94.769548 162.485677 94.769549 254.183226a16.516129 16.516129 0 0 1-33.032258 0c0-73.265548-47.896774-221.150968-61.770323-221.150968-3.005935 0-20.050581 16.978581-43.470452 45.947871l-38.647741 49.152c-3.633548 4.525419-6.837677 8.423226-9.810581 11.924645-16.218839 19.15871-24.576 26.756129-36.236387 26.756129l-5.912774-0.264258a238.625032 238.625032 0 0 1-16.978581-2.312258l-30.72-5.12-19.819355-3.005935c-9.249032-1.32129-17.738323-2.312258-25.996387-3.038968a298.380387 298.380387 0 0 0-25.798194-1.222193c-7.861677 0-16.350968 0.429419-25.500903 1.222193-13.873548 1.189161-28.473806 3.171097-46.046967 6.044903l-31.413678 5.351226c-10.339097 1.651613-16.450065 2.312258-20.810322 2.312258-9.777548 0-17.209806-5.351226-31.744-19.819355l-14.369033-14.798451-33.296516-35.608774-6.903742-7.234065c-27.482839-28.506839-47.566452-44.75871-53.281032-44.75871-7.597419 0-30.72 73.463742-52.025807 203.709936a16.516129 16.516129 0 0 1-32.602838-5.351226l3.897806-23.287742c24.576-143.525161 46.575484-208.103226 80.730839-208.103226 17.11071 0 35.972129 13.60929 64.908387 42.512516zM209.195272 297.224258a16.516129 16.516129 0 1 1 24.377807 22.296774c-119.279484 130.411355-167.539613 268.288-145.738323 414.72 21.20671 142.369032 139.131871 216.526452 359.952516 222.307097a16.516129 16.516129 0 0 1-0.858838 33.032258c-235.189677-6.144-367.814194-89.583484-391.762581-250.450581-23.320774-156.804129 28.341677-304.458323 154.029419-441.905548zM998.071659 297.224258a16.516129 16.516129 0 1 0-24.377806 22.296774c119.246452 130.411355 167.506581 268.288 145.70529 414.72-21.173677 142.369032-139.098839 216.526452-359.919484 222.307097a16.516129 16.516129 0 0 0 0.858839 33.032258c235.156645-6.144 367.781161-89.583484 391.762581-250.450581 23.320774-156.804129-28.341677-304.458323-154.02942-441.905548z" fill="#333333" p-id="4916"></path><path d="M17.740305 633.690839l2.972903 0.462451 132.129032 33.032258a16.516129 16.516129 0 0 1-5.086968 32.503742l-2.972903-0.462451-132.129032-33.032258a16.516129 16.516129 0 0 1 5.086968-32.503742z" fill="#333333" p-id="4917"></path><path d="M1204.78753 633.690839l-2.972903 0.462451-132.129032 33.032258a16.516129 16.516129 0 0 0 5.086968 32.503742l2.972903-0.462451 132.129032-33.032258a16.516129 16.516129 0 0 0-5.086968-32.503742zM1075.76353 716.370581a16.516129 16.516129 0 0 0-7.002838 32.140387l2.906838 0.660645 132.129033 16.516129a16.516129 16.516129 0 0 0 7.002838-32.173419l-2.906838-0.660646-132.129033-16.516129z" fill="#333333" p-id="4918"></path><path d="M146.764305 716.370581a16.516129 16.516129 0 0 1 7.002838 32.140387l-2.906838 0.660645-132.129033 16.516129a16.516129 16.516129 0 0 1-7.002838-32.173419l2.906838-0.660646 132.129033-16.516129z" fill="#333333" p-id="4919"></path><path d="M350.077853 716.238452a33.032258 33.032258 0 1 0 0-66.064517 33.032258 33.032258 0 0 0 0 66.064517z" fill="#333333" p-id="4920"></path><path d="M264.425208 831.851355a66.064516 66.064516 0 1 0 0-132.129032 66.064516 66.064516 0 0 0 0 132.129032zM925.070369 831.851355a66.064516 66.064516 0 1 0 0-132.129032 66.064516 66.064516 0 0 0 0 132.129032z" fill="#F6B2B1" p-id="4921"></path><path d="M838.096434 716.238452a33.032258 33.032258 0 1 0 0-66.064517 33.032258 33.032258 0 0 0 0 66.064517zM594.747788 699.722323c18.233806 0 28.440774-7.399226 28.440775-16.516129s-10.206968-16.516129-28.440775-16.516129-27.152516 7.399226-27.152516 16.516129 8.91871 16.516129 27.152516 16.516129z" fill="#333333" p-id="4922"></path><path d="M611.329982 708.872258a66.064516 66.064516 0 0 1-131.963871 4.954839l-0.165161-4.954839v-20.579097a16.516129 16.516129 0 0 1 32.768-2.972903l0.264258 2.972903v20.612129a33.032258 33.032258 0 0 0 65.83329 3.831742l0.231226-3.831742v-20.612129a16.516129 16.516129 0 0 1 32.768-2.972903l0.264258 2.972903v20.612129z" fill="#333333" p-id="4923"></path><path d="M710.426756 708.872258a66.064516 66.064516 0 0 1-131.963871 4.954839l-0.165161-4.954839v-20.579097a16.516129 16.516129 0 0 1 32.768-2.972903l0.264258 2.972903v20.612129a33.032258 33.032258 0 0 0 65.83329 3.831742l0.231226-3.831742v-20.612129a16.516129 16.516129 0 0 1 32.768-2.972903l0.264258 2.972903v20.612129z" fill="#333333" p-id="4924"></path><path d="M342.117079 147.257806c-11.230968 3.79871-18.167742 24.509935-25.038452 52.95071-6.837677 28.440774-12.387097 57.079742-2.510452 61.539097 9.843613 4.459355 81.19329-29.266581 84.166194-45.848774 3.005935-16.615226-45.35329-72.439742-56.61729-68.641033zM849.723788 147.257806c11.230968 3.79871 18.167742 24.509935 25.00542 52.95071 6.87071 28.440774 12.420129 57.079742 2.543484 61.539097s-81.19329-29.266581-84.199226-45.848774c-2.972903-16.615226 45.386323-72.439742 56.650322-68.641033z" fill="#F6B2B1" p-id="4925"></path></svg>